<mxfile host="Electron" modified="2024-07-18T03:57:13.589Z" agent="Mozilla/5.0 (Windows NT 10.0; Win64; x64) AppleWebKit/537.36 (KHTML, like Gecko) draw.io/24.6.4 Chrome/124.0.6367.207 Electron/30.0.6 Safari/537.36" etag="aT_6jJDkeobQdq7TA5UU" version="24.6.4" type="device">
  <diagram name="第 1 页" id="RGhP7HthxpADM6s3xtkW">
    <mxGraphModel dx="1815" dy="573" grid="1" gridSize="10" guides="1" tooltips="1" connect="1" arrows="1" fold="1" page="1" pageScale="1" pageWidth="827" pageHeight="1169" math="0" shadow="0">
      <root>
        <mxCell id="0" />
        <mxCell id="1" parent="0" />
        <mxCell id="N_BUfMJ0ICJzix_W62eB-28" style="edgeStyle=orthogonalEdgeStyle;rounded=0;orthogonalLoop=1;jettySize=auto;html=1;entryX=0;entryY=0.5;entryDx=0;entryDy=0;" parent="1" source="N_BUfMJ0ICJzix_W62eB-1" target="N_BUfMJ0ICJzix_W62eB-22" edge="1">
          <mxGeometry relative="1" as="geometry">
            <mxPoint x="-260" y="70" as="targetPoint" />
          </mxGeometry>
        </mxCell>
        <mxCell id="N_BUfMJ0ICJzix_W62eB-1" value="Training Data" style="shape=ext;double=1;rounded=1;whiteSpace=wrap;html=1;fillColor=#A9C4EB;glass=1;fontFamily=Times New Roman;fontSize=15;opacity=60;fontStyle=1" parent="1" vertex="1">
          <mxGeometry x="-426" y="50" width="120" height="40" as="geometry" />
        </mxCell>
        <mxCell id="N_BUfMJ0ICJzix_W62eB-33" style="edgeStyle=orthogonalEdgeStyle;rounded=0;orthogonalLoop=1;jettySize=auto;html=1;entryX=0;entryY=0.5;entryDx=0;entryDy=0;" parent="1" source="N_BUfMJ0ICJzix_W62eB-2" target="N_BUfMJ0ICJzix_W62eB-26" edge="1">
          <mxGeometry relative="1" as="geometry" />
        </mxCell>
        <mxCell id="N_BUfMJ0ICJzix_W62eB-2" value="Training Label" style="shape=ext;double=1;rounded=1;whiteSpace=wrap;html=1;strokeColor=default;strokeWidth=1;fillColor=#a6d6ce;fontFamily=Times New Roman;fontSize=15;opacity=60;glass=1;fontStyle=1" parent="1" vertex="1">
          <mxGeometry x="-580" y="171" width="120" height="40" as="geometry" />
        </mxCell>
        <mxCell id="N_BUfMJ0ICJzix_W62eB-3" value="Testing Data" style="shape=ext;double=1;rounded=1;whiteSpace=wrap;html=1;fillColor=#D4E1F5;glass=1;shadow=0;fontFamily=Times New Roman;fontSize=15;opacity=60;fontStyle=1" parent="1" vertex="1">
          <mxGeometry x="-426" y="110" width="120" height="40" as="geometry" />
        </mxCell>
        <mxCell id="N_BUfMJ0ICJzix_W62eB-34" style="edgeStyle=orthogonalEdgeStyle;rounded=0;orthogonalLoop=1;jettySize=auto;html=1;entryX=0;entryY=0.5;entryDx=0;entryDy=0;" parent="1" source="N_BUfMJ0ICJzix_W62eB-4" target="N_BUfMJ0ICJzix_W62eB-26" edge="1">
          <mxGeometry relative="1" as="geometry" />
        </mxCell>
        <mxCell id="N_BUfMJ0ICJzix_W62eB-4" value="Testing Lable" style="shape=ext;double=1;rounded=1;whiteSpace=wrap;html=1;fontSize=15;fontFamily=Times New Roman;fillColor=#D5E8D4;opacity=60;glass=1;fontStyle=1" parent="1" vertex="1">
          <mxGeometry x="-580" y="231" width="120" height="40" as="geometry" />
        </mxCell>
        <mxCell id="N_BUfMJ0ICJzix_W62eB-13" style="edgeStyle=orthogonalEdgeStyle;rounded=0;orthogonalLoop=1;jettySize=auto;html=1;entryX=0;entryY=0.5;entryDx=0;entryDy=0;" parent="1" source="N_BUfMJ0ICJzix_W62eB-6" target="N_BUfMJ0ICJzix_W62eB-1" edge="1">
          <mxGeometry relative="1" as="geometry" />
        </mxCell>
        <mxCell id="N_BUfMJ0ICJzix_W62eB-6" value="Pad Data" style="rounded=1;whiteSpace=wrap;html=1;fontStyle=1;fontSize=13;fontFamily=Times New Roman;gradientColor=none;fontColor=#5C998E;glass=0;fillColor=#F5F5F5;strokeColor=default;" parent="1" vertex="1">
          <mxGeometry x="-570" y="80" width="100" height="40" as="geometry" />
        </mxCell>
        <mxCell id="N_BUfMJ0ICJzix_W62eB-11" style="edgeStyle=orthogonalEdgeStyle;rounded=0;orthogonalLoop=1;jettySize=auto;html=1;entryX=0;entryY=0.5;entryDx=0;entryDy=0;" parent="1" source="N_BUfMJ0ICJzix_W62eB-7" target="N_BUfMJ0ICJzix_W62eB-6" edge="1">
          <mxGeometry relative="1" as="geometry" />
        </mxCell>
        <mxCell id="N_BUfMJ0ICJzix_W62eB-7" value="Gesture Train" style="shape=ext;double=1;rounded=1;whiteSpace=wrap;fontFamily=Times New Roman;fontSize=15;labelBackgroundColor=none;fillColor=#A9C4EB;fontColor=#000000;opacity=60;glass=1;fontStyle=1" parent="1" vertex="1">
          <mxGeometry x="-750" y="50" width="140" height="40" as="geometry" />
        </mxCell>
        <mxCell id="N_BUfMJ0ICJzix_W62eB-12" style="edgeStyle=orthogonalEdgeStyle;rounded=0;orthogonalLoop=1;jettySize=auto;html=1;entryX=0;entryY=0.5;entryDx=0;entryDy=0;" parent="1" source="N_BUfMJ0ICJzix_W62eB-8" target="N_BUfMJ0ICJzix_W62eB-6" edge="1">
          <mxGeometry relative="1" as="geometry" />
        </mxCell>
        <mxCell id="N_BUfMJ0ICJzix_W62eB-8" value="Gesture Test" style="shape=ext;double=1;rounded=1;whiteSpace=wrap;html=1;fontFamily=Times New Roman;fontSize=15;fillColor=#D4E1F5;opacity=60;glass=1;fontStyle=1" parent="1" vertex="1">
          <mxGeometry x="-750" y="110" width="140" height="40" as="geometry" />
        </mxCell>
        <mxCell id="N_BUfMJ0ICJzix_W62eB-18" style="edgeStyle=orthogonalEdgeStyle;rounded=0;orthogonalLoop=1;jettySize=auto;html=1;entryX=0;entryY=0.5;entryDx=0;entryDy=0;" parent="1" source="N_BUfMJ0ICJzix_W62eB-9" target="N_BUfMJ0ICJzix_W62eB-2" edge="1">
          <mxGeometry relative="1" as="geometry" />
        </mxCell>
        <mxCell id="N_BUfMJ0ICJzix_W62eB-9" value="Gesture&amp;nbsp; Class Train" style="shape=ext;double=1;rounded=1;whiteSpace=wrap;html=1;fillColor=#a6d6ce;fontFamily=Times New Roman;fontSize=15;opacity=60;glass=1;fontStyle=1" parent="1" vertex="1">
          <mxGeometry x="-750" y="170" width="140" height="41" as="geometry" />
        </mxCell>
        <mxCell id="N_BUfMJ0ICJzix_W62eB-19" style="edgeStyle=orthogonalEdgeStyle;rounded=0;orthogonalLoop=1;jettySize=auto;html=1;entryX=0;entryY=0.5;entryDx=0;entryDy=0;" parent="1" source="N_BUfMJ0ICJzix_W62eB-10" target="N_BUfMJ0ICJzix_W62eB-4" edge="1">
          <mxGeometry relative="1" as="geometry" />
        </mxCell>
        <mxCell id="N_BUfMJ0ICJzix_W62eB-10" value="Gesture&amp;nbsp; Class Test" style="shape=ext;double=1;rounded=1;whiteSpace=wrap;html=1;fillColor=#D5E8D4;fontFamily=Times New Roman;fontSize=14;opacity=60;glass=1;fontStyle=1" parent="1" vertex="1">
          <mxGeometry x="-750" y="231" width="140" height="40" as="geometry" />
        </mxCell>
        <mxCell id="N_BUfMJ0ICJzix_W62eB-17" value="" style="endArrow=classic;html=1;rounded=0;exitX=1;exitY=0.5;exitDx=0;exitDy=0;entryX=0;entryY=0.5;entryDx=0;entryDy=0;edgeStyle=orthogonalEdgeStyle;" parent="1" source="N_BUfMJ0ICJzix_W62eB-6" target="N_BUfMJ0ICJzix_W62eB-3" edge="1">
          <mxGeometry width="50" height="50" relative="1" as="geometry">
            <mxPoint x="-420" y="190" as="sourcePoint" />
            <mxPoint x="-370" y="140" as="targetPoint" />
          </mxGeometry>
        </mxCell>
        <mxCell id="N_BUfMJ0ICJzix_W62eB-35" style="edgeStyle=orthogonalEdgeStyle;rounded=0;orthogonalLoop=1;jettySize=auto;html=1;exitX=0;exitY=0.5;exitDx=0;exitDy=0;entryX=1;entryY=0.5;entryDx=0;entryDy=0;" parent="1" source="N_BUfMJ0ICJzix_W62eB-25" edge="1">
          <mxGeometry relative="1" as="geometry">
            <mxPoint x="-260.5200000000002" y="181.36" as="sourcePoint" />
            <mxPoint x="-316" y="181" as="targetPoint" />
            <Array as="points">
              <mxPoint x="-280" y="245" />
              <mxPoint x="-280" y="181" />
            </Array>
          </mxGeometry>
        </mxCell>
        <mxCell id="N_BUfMJ0ICJzix_W62eB-20" value="" style="rounded=1;whiteSpace=wrap;html=1;fillColor=#F5F5F5;" parent="1" vertex="1">
          <mxGeometry x="-260" y="50" width="130" height="220" as="geometry" />
        </mxCell>
        <mxCell id="N_BUfMJ0ICJzix_W62eB-21" value="Augment Data" style="text;html=1;align=center;verticalAlign=middle;whiteSpace=wrap;rounded=0;fontStyle=1;fontFamily=Times New Roman;fontColor=#5C998E;" parent="1" vertex="1">
          <mxGeometry x="-260" y="50" width="130" height="30" as="geometry" />
        </mxCell>
        <mxCell id="N_BUfMJ0ICJzix_W62eB-22" value="Denoise All" style="rounded=1;whiteSpace=wrap;html=1;fontFamily=Times New Roman;fontStyle=1" parent="1" vertex="1">
          <mxGeometry x="-240" y="80" width="90" height="30" as="geometry" />
        </mxCell>
        <mxCell id="N_BUfMJ0ICJzix_W62eB-23" value="Time Wrap" style="rounded=1;whiteSpace=wrap;html=1;fontFamily=Times New Roman;fontStyle=1" parent="1" vertex="1">
          <mxGeometry x="-240" y="130" width="90" height="30" as="geometry" />
        </mxCell>
        <mxCell id="N_BUfMJ0ICJzix_W62eB-24" value="Multiplier" style="rounded=1;whiteSpace=wrap;html=1;fontFamily=Times New Roman;fontStyle=1" parent="1" vertex="1">
          <mxGeometry x="-240" y="180" width="90" height="30" as="geometry" />
        </mxCell>
        <mxCell id="N_BUfMJ0ICJzix_W62eB-25" value="Interpolate" style="rounded=1;whiteSpace=wrap;html=1;fontFamily=Times New Roman;fontStyle=1" parent="1" vertex="1">
          <mxGeometry x="-240" y="230" width="90" height="30" as="geometry" />
        </mxCell>
        <mxCell id="N_BUfMJ0ICJzix_W62eB-36" style="edgeStyle=orthogonalEdgeStyle;rounded=0;orthogonalLoop=1;jettySize=auto;html=1;entryX=0.5;entryY=0;entryDx=0;entryDy=0;" parent="1" edge="1">
          <mxGeometry relative="1" as="geometry">
            <mxPoint x="-395.0000000000001" y="211" as="sourcePoint" />
            <mxPoint x="-395" y="231" as="targetPoint" />
          </mxGeometry>
        </mxCell>
        <mxCell id="N_BUfMJ0ICJzix_W62eB-26" value="Shuffle Data" style="rounded=1;whiteSpace=wrap;html=1;fontStyle=1;fontSize=13;fontFamily=Times New Roman;fontColor=#5C998E;fillColor=#F5F5F5;" parent="1" vertex="1">
          <mxGeometry x="-416" y="171" width="100" height="40" as="geometry" />
        </mxCell>
        <mxCell id="N_BUfMJ0ICJzix_W62eB-27" value="Data Type Convesion" style="rounded=1;whiteSpace=wrap;html=1;fontStyle=1;fontSize=13;fontFamily=Times New Roman;fontColor=#5C998E;fillColor=#F5F5F5;" parent="1" vertex="1">
          <mxGeometry x="-416" y="231" width="100" height="40" as="geometry" />
        </mxCell>
        <mxCell id="N_BUfMJ0ICJzix_W62eB-29" style="edgeStyle=orthogonalEdgeStyle;rounded=0;orthogonalLoop=1;jettySize=auto;html=1;entryX=0;entryY=0.5;entryDx=0;entryDy=0;" parent="1" source="N_BUfMJ0ICJzix_W62eB-3" target="N_BUfMJ0ICJzix_W62eB-22" edge="1">
          <mxGeometry relative="1" as="geometry" />
        </mxCell>
        <mxCell id="N_BUfMJ0ICJzix_W62eB-37" style="edgeStyle=orthogonalEdgeStyle;rounded=0;orthogonalLoop=1;jettySize=auto;html=1;exitX=0;exitY=0.5;exitDx=0;exitDy=0;entryX=1;entryY=0.5;entryDx=0;entryDy=0;" parent="1" source="N_BUfMJ0ICJzix_W62eB-25" edge="1">
          <mxGeometry relative="1" as="geometry">
            <mxPoint x="-260.0000000000002" y="201.36" as="sourcePoint" />
            <mxPoint x="-315.48" y="201" as="targetPoint" />
            <Array as="points">
              <mxPoint x="-280" y="245" />
              <mxPoint x="-280" y="201" />
            </Array>
          </mxGeometry>
        </mxCell>
        <mxCell id="N_BUfMJ0ICJzix_W62eB-38" style="edgeStyle=orthogonalEdgeStyle;rounded=0;orthogonalLoop=1;jettySize=auto;html=1;entryX=0.5;entryY=0;entryDx=0;entryDy=0;" parent="1" edge="1">
          <mxGeometry relative="1" as="geometry">
            <mxPoint x="-375.0000000000001" y="211" as="sourcePoint" />
            <mxPoint x="-375" y="231" as="targetPoint" />
            <Array as="points">
              <mxPoint x="-375" y="221" />
              <mxPoint x="-375" y="221" />
            </Array>
          </mxGeometry>
        </mxCell>
        <mxCell id="N_BUfMJ0ICJzix_W62eB-39" style="edgeStyle=orthogonalEdgeStyle;rounded=0;orthogonalLoop=1;jettySize=auto;html=1;entryX=0.5;entryY=0;entryDx=0;entryDy=0;" parent="1" edge="1">
          <mxGeometry relative="1" as="geometry">
            <mxPoint x="-335.0000000000001" y="211" as="sourcePoint" />
            <mxPoint x="-335" y="231" as="targetPoint" />
            <Array as="points">
              <mxPoint x="-335" y="221" />
              <mxPoint x="-335" y="221" />
            </Array>
          </mxGeometry>
        </mxCell>
        <mxCell id="N_BUfMJ0ICJzix_W62eB-40" style="edgeStyle=orthogonalEdgeStyle;rounded=0;orthogonalLoop=1;jettySize=auto;html=1;entryX=0.5;entryY=0;entryDx=0;entryDy=0;" parent="1" edge="1">
          <mxGeometry relative="1" as="geometry">
            <mxPoint x="-355.0000000000001" y="211" as="sourcePoint" />
            <mxPoint x="-355" y="231" as="targetPoint" />
            <Array as="points">
              <mxPoint x="-355" y="221" />
              <mxPoint x="-355" y="221" />
            </Array>
          </mxGeometry>
        </mxCell>
        <mxCell id="N_BUfMJ0ICJzix_W62eB-43" style="edgeStyle=orthogonalEdgeStyle;rounded=0;orthogonalLoop=1;jettySize=auto;html=1;entryX=0.5;entryY=0;entryDx=0;entryDy=0;dashed=1;endArrow=oval;endFill=1;" parent="1" edge="1">
          <mxGeometry relative="1" as="geometry">
            <mxPoint x="-195.12000000000012" y="110" as="sourcePoint" />
            <mxPoint x="-195.12" y="130" as="targetPoint" />
            <Array as="points">
              <mxPoint x="-195.12" y="120" />
              <mxPoint x="-195.12" y="120" />
            </Array>
          </mxGeometry>
        </mxCell>
        <mxCell id="N_BUfMJ0ICJzix_W62eB-45" style="edgeStyle=orthogonalEdgeStyle;rounded=0;orthogonalLoop=1;jettySize=auto;html=1;entryX=0.5;entryY=0;entryDx=0;entryDy=0;dashed=1;endArrow=oval;endFill=1;" parent="1" edge="1">
          <mxGeometry relative="1" as="geometry">
            <mxPoint x="-195.05000000000013" y="160" as="sourcePoint" />
            <mxPoint x="-195.05" y="180" as="targetPoint" />
            <Array as="points">
              <mxPoint x="-195.05" y="170" />
              <mxPoint x="-195.05" y="170" />
            </Array>
          </mxGeometry>
        </mxCell>
        <mxCell id="N_BUfMJ0ICJzix_W62eB-46" style="edgeStyle=orthogonalEdgeStyle;rounded=0;orthogonalLoop=1;jettySize=auto;html=1;entryX=0.5;entryY=0;entryDx=0;entryDy=0;dashed=1;endArrow=oval;endFill=1;" parent="1" edge="1">
          <mxGeometry relative="1" as="geometry">
            <mxPoint x="-195.02000000000015" y="210" as="sourcePoint" />
            <mxPoint x="-195.02000000000004" y="230" as="targetPoint" />
            <Array as="points">
              <mxPoint x="-195.02000000000004" y="220" />
              <mxPoint x="-195.02000000000004" y="220" />
            </Array>
          </mxGeometry>
        </mxCell>
      </root>
    </mxGraphModel>
  </diagram>
</mxfile>
